<svg width="16.000000" height="16.000000" viewBox="0 0 16 16" fill="none" xmlns="http://www.w3.org/2000/svg" xmlns:xlink="http://www.w3.org/1999/xlink">

	<defs>
		<clipPath id="clip19_15075">
			<rect id="fi:eye-off" width="16.000000" height="16.000000" fill="white" fill-opacity="0"/>
		</clipPath>
	</defs>
	<rect id="fi:eye-off" width="16.000000" height="16.000000" fill="#FFFFFF" fill-opacity="0"/>
	<g clip-path="url(#clip19_15075)">
		<path id="Vector" d="M8 13.3333C3.33301 13.3333 0.666504 7.99997 0.666504 7.99997C1.49561 6.45457 2.646 5.10439 4.04004 4.03998L11.96 11.96C10.8203 12.8286 9.43262 13.3099 8 13.3333ZM6.59961 2.82664C7.05859 2.71922 7.52832 2.66554 8 2.66664C12.6665 2.66664 15.333 7.99997 15.333 7.99997C14.9287 8.75705 14.4458 9.4698 13.8931 10.1266M9.41309 9.41331C9.22998 9.6098 9.00928 9.76741 8.76416 9.87672C8.51855 9.98604 8.25391 10.0448 7.98535 10.0496C7.7168 10.0543 7.44971 10.0049 7.20068 9.9043C6.95166 9.80371 6.72559 9.65399 6.53564 9.46408C6.3457 9.27415 6.19629 9.04794 6.0957 8.7989C5.99512 8.54987 5.94531 8.28313 5.9502 8.01459C5.95508 7.74605 6.01367 7.4812 6.12305 7.23587C6.23242 6.99054 6.39014 6.76974 6.58643 6.58664" stroke="#000000" stroke-opacity="1.000000" stroke-width="1.200000" stroke-linejoin="round"/>
		<path id="Vector" d="M0.666504 0.666687L15.333 15.3334" stroke="#000000" stroke-opacity="1.000000" stroke-width="1.200000" stroke-linejoin="round" stroke-linecap="round"/>
	</g>
</svg>
