<svg width="16" height="16" viewBox="0 0 16 16" fill="none" xmlns="http://www.w3.org/2000/svg">
<path d="M6.09615 13.8549V11.8103C6.09614 11.2922 6.51744 10.8713 7.03928 10.868H8.9554C9.47957 10.868 9.9045 11.2899 9.9045 11.8103V13.849C9.90449 14.2983 10.2697 14.6636 10.7223 14.6668H12.0295C12.6401 14.6684 13.2262 14.4287 13.6584 14.0006C14.0907 13.5726 14.3337 12.9913 14.3337 12.3852V6.57739C14.3336 6.08775 14.115 5.6233 13.7367 5.30916L9.29564 1.78301C8.51933 1.16624 7.41057 1.18617 6.65725 1.83042L2.31167 5.30916C1.91549 5.61404 1.67869 6.07987 1.66699 6.57739V12.3793C1.66699 13.6426 2.69858 14.6668 3.97111 14.6668H5.24852C5.46644 14.6684 5.67598 14.5835 5.83064 14.4311C5.9853 14.2787 6.07228 14.0713 6.07227 13.8549H6.09615Z" fill="#5570F1"/>
</svg>
