<svg width="24.000000" height="24.000000" viewBox="0 0 24 24" fill="none" xmlns="http://www.w3.org/2000/svg" xmlns:xlink="http://www.w3.org/1999/xlink">
	
	<rect id="Iconly/Light/Lock" width="24.000000" height="24.000000" fill="#FFFFFF" fill-opacity="0"/>
	<path id="Stroke 1" d="M16.4233 9.4478L16.4233 7.3008C16.4233 4.7878 14.3853 2.7498 11.8721 2.7498C9.35938 2.7388 7.31348 4.7668 7.30225 7.28081L7.30225 7.3008L7.30225 9.4478" stroke="#6E7079" stroke-opacity="1.000000" stroke-width="1.500000" stroke-linejoin="round" stroke-linecap="round"/>
	<path id="Stroke 3" d="M8.04199 21.2496C5.94824 21.2496 4.25 19.5526 4.25 17.4576L4.25 13.1686C4.25 11.0736 5.94824 9.37659 8.04199 9.37659L15.6831 9.37659C17.7769 9.37659 19.4751 11.0736 19.4751 13.1686L19.4751 17.4576C19.4751 19.5526 17.7769 21.2496 15.6831 21.2496L8.04199 21.2496Z" stroke="#6E7079" stroke-opacity="1.000000" stroke-width="1.500000" stroke-linejoin="round"/>
	<path id="Stroke 5" d="M11.8628 14.2027L11.8628 16.4237" stroke="#6E7079" stroke-opacity="1.000000" stroke-width="1.500000" stroke-linejoin="round" stroke-linecap="round"/>
</svg>
