<svg xmlns="http://www.w3.org/2000/svg" width="21" height="27" viewBox="0 0 21 27" fill="none">
<mask id="mask0_3_518" style="mask-type:alpha" maskUnits="userSpaceOnUse" x="0" y="0" width="21" height="27">
<path d="M20.621 21.5603V20.7533C20.621 17.9515 18.3389 15.6802 15.5237 15.6802H14.8286C12.3973 15.6802 10.4264 13.7187 10.4264 11.299V9.91545C10.4264 8.25987 11.7749 6.91776 13.4384 6.91776C15.1019 6.91776 16.4505 5.57564 16.4505 3.92006V2.99769C16.4505 1.34211 15.1019 -7.23677e-08 13.4384 0C11.7749 7.23677e-08 10.4264 1.37066 10.4264 3.02624C10.4264 4.71366 9.05188 6.11068 7.35638 6.11068H5.15526C2.30809 6.11068 -1.24454e-07 8.40776 0 11.2414C1.24454e-07 14.0749 2.30809 16.372 5.15526 16.372H5.27111C8.11828 16.372 10.4264 18.6981 10.4264 21.5317C10.4264 24.3334 12.7085 26.6334 15.5237 26.6334C18.3389 26.6334 20.621 24.3621 20.621 21.5603Z" fill="#364954"/>
<path d="M20.621 21.5603V20.7533C20.621 17.9515 18.3389 15.6802 15.5237 15.6802H14.8286C12.3973 15.6802 10.4264 13.7187 10.4264 11.299V9.91545C10.4264 8.25987 11.7749 6.91776 13.4384 6.91776C15.1019 6.91776 16.4505 5.57564 16.4505 3.92006V2.99769C16.4505 1.34211 15.1019 -7.23677e-08 13.4384 0C11.7749 7.23677e-08 10.4264 1.37066 10.4264 3.02624C10.4264 4.71366 9.05188 6.11068 7.35638 6.11068H5.15526C2.30809 6.11068 -1.24454e-07 8.40776 0 11.2414C1.24454e-07 14.0749 2.30809 16.372 5.15526 16.372H5.27111C8.11828 16.372 10.4264 18.6981 10.4264 21.5317C10.4264 24.3334 12.7085 26.6334 15.5237 26.6334C18.3389 26.6334 20.621 24.3621 20.621 21.5603Z" fill="#36373A"/>
</mask>
<g mask="url(#mask0_3_518)">
<path d="M21.7995 0H-3.63379V28.75H21.7995V0Z" fill="#55BBEB"/>
</g>
</svg>